HIERARCHY
ROOT Hips
{
 OFFSET 0.000000 0.000000 0.000000
 CHANNELS 6 Xposition Yposition Zposition Yrotation Xrotation Zrotation
 JOINT Chest
 {
  OFFSET 0.000000 10.383400 0.001500
  CHANNELS 3 Yrotation Xrotation Zrotation
  JOINT Chest2
  {
   OFFSET 0.000000 10.418200 -0.003100
   CHANNELS 3 Yrotation Xrotation Zrotation
   JOINT Chest3
   {
    OFFSET 0.000000 10.375100 0.000000
    CHANNELS 3 Yrotation Xrotation Zrotation
    JOINT Chest4
    {
     OFFSET 0.000000 10.364600 0.000000
     CHANNELS 3 Yrotation Xrotation Zrotation
     JOINT Neck
     {
      OFFSET 0.000000 15.642200 0.000000
      CHANNELS 3 Yrotation Xrotation Zrotation
      JOINT Head
      {
       OFFSET 0.000000 9.697300 -0.006500
       CHANNELS 3 Yrotation Xrotation Zrotation
       End Site
       {
        OFFSET 0.000000 18.492200 -0.003400
       }
      }
     }
     JOINT RightCollar
     {
      OFFSET -3.166800 10.349300 0.000000
      CHANNELS 3 Yrotation Xrotation Zrotation
      JOINT RightShoulder
      {
       OFFSET -14.729700 0.000000 0.000000
       CHANNELS 3 Yrotation Xrotation Zrotation
       JOINT RightElbow
       {
        OFFSET 0.000000 -32.224300 0.000000
        CHANNELS 3 Yrotation Xrotation Zrotation
        JOINT RightWrist
        {
         OFFSET 0.000000 -26.084100 0.000000
         CHANNELS 3 Yrotation Xrotation Zrotation
         End Site
         {
          OFFSET 0.000000 -19.319400 0.000000
         }
        }
       }
      }
     }
     JOINT LeftCollar
     {
      OFFSET 3.166800 10.349300 0.000000
      CHANNELS 3 Yrotation Xrotation Zrotation
      JOINT LeftShoulder
      {
       OFFSET 14.729700 0.000000 0.000000
       CHANNELS 3 Yrotation Xrotation Zrotation
       JOINT LeftElbow
       {
        OFFSET 0.000000 -32.224300 0.000000
        CHANNELS 3 Yrotation Xrotation Zrotation
        JOINT LeftWrist
        {
         OFFSET 0.000000 -26.084100 0.000000
         CHANNELS 3 Yrotation Xrotation Zrotation
         End Site
         {
          OFFSET 0.000000 -19.319400 0.000000
         }
        }
       }
      }
     }
    }
   }
  }
 }
 JOINT RightHip
 {
  OFFSET -8.428900 -0.007500 -0.000800
  CHANNELS 3 Yrotation Xrotation Zrotation
  JOINT RightKnee
  {
   OFFSET 0.000000 -43.834600 0.000700
   CHANNELS 3 Yrotation Xrotation Zrotation
   JOINT RightAnkle
   {
    OFFSET 0.000000 -42.757000 0.001200
    CHANNELS 3 Yrotation Xrotation Zrotation
    JOINT RightToe
    {
     OFFSET 0.000000 -6.946900 15.649300
     CHANNELS 3 Yrotation Xrotation Zrotation
     End Site
     {
      OFFSET 0.000000 -1.580800 6.825800
     }
    }
   }
  }
 }
 JOINT LeftHip
 {
  OFFSET 8.428900 -0.007500 -0.000800
  CHANNELS 3 Yrotation Xrotation Zrotation
  JOINT LeftKnee
  {
   OFFSET 0.000000 -43.834600 0.000700
   CHANNELS 3 Yrotation Xrotation Zrotation
   JOINT LeftAnkle
   {
    OFFSET 0.000000 -42.757000 0.001200
    CHANNELS 3 Yrotation Xrotation Zrotation
    JOINT LeftToe
    {
     OFFSET 0.000000 -6.946900 15.649300
     CHANNELS 3 Yrotation Xrotation Zrotation
     End Site
     {
      OFFSET 0.000000 -1.580800 6.825800
     }
    }
   }
  }
 }
}
MOTION
Frames: 11
Frame Time: 0.008333
0.000000 93.354300 0.000000 0.000000 -5.767877 0.000000 0.000000 11.653817 0.000000 0.000000 -5.885947 0.000000 0.000000 -0.000000 0.000000 0.000000 -0.000000 0.000000 0.000000 12.528835 0.000000 0.000000 0.711642 0.000000 0.000000 -0.000000 0.000000 0.000000 0.000000 -90.000000 0.000000 -2.309062 0.000000 0.000000 2.309062 0.000000 0.000000 -0.000000 0.000000 0.000000 -0.000000 90.000000 0.000000 -2.309062 0.000000 0.000000 2.309062 0.000000 0.000000 8.520406 0.000000 0.000000 1.905762 0.000000 -0.000000 -4.658285 0.000000 0.000000 -0.000000 0.000000 0.000000 8.520406 0.000000 0.000000 1.905762 0.000000 -0.000000 -4.658285 0.000000 0.000000 -0.000000 0.000000
0.467040 151.445704 -8.545762 179.045843 -18.932766 -3.879500 -0.225690 18.684502 2.046248 -0.058911 2.154979 0.232893 -0.092600 3.561201 0.383898 -0.231262 16.206013 1.738141 -2.815120 7.996700 -0.893015 -2.864807 -17.262848 -0.301199 4.101644 -5.801521 -3.474999 19.418123 -20.803039 -11.186886 43.962167 -40.834894 -23.485748 19.586660 8.810873 -24.456754 -2.551070 -5.391132 0.827096 -7.448248 -22.183900 3.104842 -24.182201 -54.099951 4.833945 -15.359853 15.971662 23.002836 2.817272 -49.794180 8.112579 -77.903848 83.364424 -74.086608 -5.470145 -17.342452 2.466971 -0.049054 0.063187 -0.027508 -2.558888 -54.525668 -3.943796 108.565345 80.065304 113.089856 8.519705 -4.343337 -4.460504 0.049169 -3.671557 -0.431500
-0.037371 143.509721 -7.286970 179.037386 -18.975561 -3.855192 -0.205580 18.601997 2.020965 -0.055903 2.145133 0.229271 -0.087767 3.545718 0.378024 -0.212386 16.176424 1.717699 -2.848005 8.040290 -0.855008 -2.908820 -17.215890 -0.251807 4.137021 -5.791791 -3.439577 19.469168 -20.896206 -11.267634 43.747170 -40.565891 -23.193488 19.521430 8.678051 -24.518446 -2.647148 -5.419068 0.800045 -7.594585 -22.403011 3.261907 -24.128433 -53.667200 4.814856 -15.366546 16.002558 22.795807 2.843685 -49.757857 8.068433 -77.865603 83.365824 -74.038754 -5.472779 -17.303705 2.454015 -0.026422 0.050730 -0.011738 -2.566432 -54.494120 -3.932914 108.626409 80.068259 113.124726 8.533326 -4.350620 -4.459034 0.023587 0.000251 0.010470
-0.453223 136.974332 -6.244653 179.027475 -19.009362 -3.826174 -0.187526 18.512098 1.990470 -0.052910 2.135154 0.225770 -0.082995 3.529997 0.372343 -0.193719 16.146153 1.698006 -2.880050 8.086459 -0.818591 -2.951411 -17.166194 -0.204343 4.169849 -5.783414 -3.406120 19.520886 -20.975453 -11.339576 43.523842 -40.313950 -22.916277 19.455096 8.544822 -24.572144 -2.737088 -5.446823 0.775138 -7.727726 -22.610972 3.409349 -24.115131 -53.245906 4.819830 -15.358645 16.014556 22.598811 2.877907 -49.731225 8.018801 -77.846206 83.365191 -74.013892 -5.469288 -17.253268 2.446803 -0.004224 0.025767 -0.001876 -2.570956 -54.472443 -3.925363 108.711428 80.074123 113.180958 8.549270 -4.355387 -4.455812 0.008288 0.008212 0.003680
-0.755796 132.260545 -5.502407 179.012851 -19.136091 -3.782124 -0.164228 18.517140 1.944854 -0.050246 2.124902 0.222339 -0.078801 3.513815 0.366802 -0.177731 16.114796 1.678701 -2.910573 8.133717 -0.784067 -2.991783 -17.115309 -0.159354 4.202204 -5.774874 -3.376550 19.567895 -21.043789 -11.401202 43.295217 -40.085084 -22.645933 19.385524 8.415979 -24.627578 -2.818944 -5.473950 0.750722 -7.851980 -22.809194 3.550886 -24.126334 -52.834198 4.838097 -15.330317 16.002919 22.421492 2.931211 -49.627049 7.944524 -77.984362 83.390249 -74.149208 -5.455488 -17.210919 2.450215 -0.003431 0.006593 -0.001523 -2.532095 -54.354474 -3.956979 108.769914 80.081429 113.215104 8.554639 -4.346963 -4.457277 0.004911 0.001570 0.002180
-0.944933 129.282887 -5.021813 179.010775 -19.197116 -3.760303 -0.151367 18.458896 1.917867 -0.057301 2.178658 0.225305 -0.066333 3.433387 0.355049 -0.165219 16.082955 1.660153 -2.939167 8.181161 -0.751933 -3.029470 -17.064240 -0.117439 4.234322 -5.762353 -3.349644 19.603648 -21.106955 -11.453711 43.056264 -39.925792 -22.370244 19.339040 8.334681 -24.677285 -2.892496 -5.497961 0.725212 -7.971750 -23.001055 3.691572 -24.130961 -52.429756 4.843714 -15.295062 15.965664 22.263702 2.962860 -49.580260 7.896955 -78.033264 83.400790 -74.189762 -5.451970 -17.185481 2.454110 -0.003632 0.002765 -0.001612 -2.538693 -54.302224 -3.949256 108.803743 80.090310 113.221771 8.556304 -4.341272 -4.451777 0.002014 0.005456 0.000894
-1.048544 127.649105 -4.757107 179.011019 -19.287573 -3.742158 -0.140912 18.431746 1.890874 -0.050269 2.135882 0.219258 -0.067981 3.449927 0.353204 -0.152942 16.051559 1.642679 -2.966493 8.227167 -0.720838 -3.065539 -17.014749 -0.077010 4.262460 -5.745157 -3.322419 19.622470 -21.167036 -11.495689 42.833331 -39.724377 -22.113133 19.281536 8.222543 -24.718051 -2.961375 -5.516419 0.701008 -8.087923 -23.188669 3.831758 -24.111093 -52.029853 4.821859 -15.275480 15.906170 22.121899 2.988684 -49.496558 7.862930 -78.015697 83.397632 -74.162631 -5.444861 -17.168385 2.449265 0.000367 0.000995 0.000163 -2.547547 -54.218818 -3.939296 108.804554 80.097723 113.195588 8.554179 -4.326591 -4.445942 -0.000659 0.004240 -0.000293
-1.096204 126.874785 -4.627949 179.007587 -19.380732 -3.732736 -0.127677 18.408441 1.870590 -0.043944 2.094271 0.212833 -0.068568 3.465451 0.351519 -0.139559 16.020298 1.624864 -2.993325 8.271181 -0.688803 -3.101289 -16.967427 -0.035786 4.284821 -5.719949 -3.293847 19.619366 -21.226042 -11.522017 42.633757 -39.580257 -21.865984 19.247354 8.145303 -24.747668 -3.025809 -5.527461 0.681305 -8.204333 -23.371429 3.969046 -24.067245 -51.634641 4.775361 -15.263817 15.824052 22.003492 3.008035 -49.412451 7.841158 -78.013206 83.394201 -74.145335 -5.421992 -17.141507 2.441755 0.007831 0.003521 0.003476 -2.562595 -54.131806 -3.917478 108.794522 80.101392 113.162609 8.562403 -4.306695 -4.447263 -0.000071 0.004113 -0.000031
-1.114151 126.560258 -4.566456 178.994225 -19.444817 -3.725198 -0.106294 18.355477 1.854866 -0.041808 2.084126 0.209581 -0.065103 3.449475 0.346265 -0.126564 15.988921 1.606150 -3.019561 8.314193 -0.656381 -3.136516 -16.921211 0.005695 4.297967 -5.683941 -3.263444 19.599937 -21.283902 -11.532775 42.415164 -39.439080 -21.626284 19.140293 7.997830 -24.837253 -3.085395 -5.531666 0.665005 -8.325782 -23.547748 4.103747 -23.940838 -51.264802 4.654897 -15.276219 15.735735 21.917654 3.046072 -49.368636 7.805572 -77.882358 83.386702 -73.982495 -5.408401 -17.082788 2.432041 0.010429 0.001574 0.004630 -2.569575 -54.073862 -3.891680 108.761182 80.107561 113.114625 8.565549 -4.289957 -4.451157 0.000826 0.003713 0.000367
-1.119678 126.452905 -4.534771 178.992307 -19.489607 -3.719714 -0.098450 18.283156 1.837600 -0.039908 2.073990 0.206451 -0.062021 3.433546 0.341172 -0.115295 15.957425 1.587758 -3.044328 8.357419 -0.625316 -3.169793 -16.874790 0.045331 4.302641 -5.637513 -3.230833 19.569860 -21.337303 -11.532455 42.235028 -39.323969 -21.416812 19.054842 7.888407 -24.933845 -3.141302 -5.529177 0.648871 -8.447209 -23.715961 4.236336 -23.681460 -50.940446 4.419266 -15.342974 15.661177 21.864353 3.074302 -49.343724 7.764322 -77.855041 83.394831 -73.928435 -5.392315 -17.024975 2.436533 0.011463 0.009638 0.005089 -2.575528 -54.034440 -3.874263 108.759962 80.118674 113.106912 8.541612 -4.280526 -4.448166 -0.002070 0.009209 -0.000919
-1.120737 126.424073 -4.515431 178.988465 -19.533241 -3.712958 -0.092167 18.267784 1.825640 -0.036508 2.004736 0.197419 -0.059615 3.417309 0.336556 -0.106771 15.925022 1.571296 -3.067572 8.400927 -0.596906 -3.200752 -16.828111 0.081674 4.303927 -5.581437 -3.199819 19.530701 -21.384432 -11.523804 42.133408 -39.243813 -21.235936 18.951483 7.815443 -25.079913 -3.192437 -5.517853 0.630283 -8.557477 -23.874838 4.364164 -23.720819 -50.544425 4.452090 -15.202421 15.486871 21.819571 3.105805 -49.317423 7.720468 -77.787869 83.406791 -73.834376 -5.379461 -16.985398 2.430729 0.010533 0.012716 0.004677 -2.571930 -53.993912 -3.865559 108.739060 80.129259 113.084280 8.534597 -4.274504 -4.454543 -0.000775 0.014047 -0.000344
